# xmcd CD database file
#
# Track frame offsets:
#	150
#	14980
#	44800
#	61138
#	80584
#	106463
#	127164
#	149394
#	156302
#	178903
#	203638
#	233131
#	251508
#	270862
#	295068
#	325202
#
# Disc length: 4619 seconds
#
# Revision: 0
# Processed by: cddbd v1.5.2PL0 Copyright (c) Steve Scherf et al.
# Submitted via: CDex 1.70beta2
#
DISCID=f3120910
DTITLE=Sueddeutsche Zeitung - Jazz - Sounds of Europe
DYEAR=2011
DGENRE=Jazz
TTITLE0=Django Reinhardt: Nuages
TTITLE1=Martial Solal: Just Friends 
TTITLE2=Trio Töykeät: End Of The First Set 
TTITLE3=Richard Galliano Quartet: Fou Rire 
TTITLE4=Michel Petrucciani: Looking Up
TTITLE5=Gerardo Núñez: Sancti Petri (Rumba)
TTITLE6=David Linx and Diederik Wissels: Bandarkâh
TTITLE7=Maria João: Em Tão Pouco Tempo Escureceu Tanto
TTITLE8=Louis Sclavis, Aldo Romano and Henri Texier: Annobon
TTITLE9=Bugge Wesseltoft: Existence 
TTITLE10=Nils Petter Molvær: Ligotage (Single Version) 
TTITLE11=Esbjörn Svensson Trio: From Gagarin‘s Point Of View
TTITLE12=Rolf Kühn and Joachim Kühn: Walk 
TTITLE13=Albert Mangelsdorff Quintett: Flower Dream
TTITLE14=Magnus Hjorth Trio: Good Friday 
TTITLE15=Gianluigi Trovesi and Gianni Coscia: Tre Bimbi Di Campagna 
EXTD=YEAR: 2011
EXTT0=
EXTT1=
EXTT2=
EXTT3=
EXTT4=
EXTT5=
EXTT6=
EXTT7=
EXTT8=
EXTT9=
EXTT10=
EXTT11=
EXTT12=
EXTT13=
EXTT14=
EXTT15=
PLAYORDER=
